<?xml version="1.0" encoding="utf-8"?>
<!-- Generator: Adobe Illustrator 23.0.4, SVG Export Plug-In . SVG Version: 6.00 Build 0)  -->
<svg version="1.1" id="Capa_1" xmlns="http://www.w3.org/2000/svg" xmlns:xlink="http://www.w3.org/1999/xlink" x="0px" y="0px"
	 viewBox="0 0 512 512" style="enable-background:new 0 0 512 512;" xml:space="preserve">
<style type="text/css">
	.st0{fill:#1A1A1A;}
</style>
<path class="st0" d="M398.7,99.6c-1.5-2.2-4-3.6-6.7-3.6h-20.3l-45.6-53.2c-1.5-1.8-3.7-2.8-6.1-2.8h-27.7l-13.6-20.4
	c-1.5-2.2-4-3.6-6.7-3.6h-32c-2.4,0-4.6,1.1-6.1,2.9L196.3,64H176c-2.5,0-4.9,1.2-6.4,3.2L148,96h-28c-2.7,0-5.2,1.3-6.7,3.6
	L83.7,144H16v16h65.8l30.5,121.9c0.9,3.6,4.1,6.1,7.8,6.1h17.9l38.4,138.1c1,3.5,4.1,5.9,7.7,5.9h25.8l14.5,57.9
	c0.9,3.6,4.1,6.1,7.8,6.1h48c3.7,0,6.9-2.5,7.8-6.1L318.2,368H336c3.5,0,6.6-2.3,7.7-5.7L366,288h26c3.7,0,6.9-2.5,7.8-6.1
	L430.2,160H496v-16h-67.7L398.7,99.6z M124.3,112h23.4l13.6,20.4l13.3-8.9l-12.9-19.3L180,80h60V64h-22.9l26.7-32h24l13.6,20.4
	c1.5,2.2,4,3.6,6.7,3.6h28.3l34.3,40H336c-2.7,0-5.2,1.3-6.7,3.6l-16,24l13.3,8.9l13.6-20.4h47.4l21.3,32H103L124.3,112z M385.8,272
	h-20.2l-22.1-58.8l-15,5.6l23.1,61.5L330,352h-58v16h29.8l-28,112h-35.5l-14.5-57.9c-0.9-3.6-4.1-6.1-7.8-6.1h-25.9l-35.6-128H184
	c3.3,0,6.3-2.1,7.5-5.2l22.1-58.8H232c2.8,0,5.4-1.5,6.9-3.9l24-40l-13.7-8.2L227.5,208H176v16h20.5l-18,48h-52.2l-28-112h315.5
	L385.8,272z"/>
<path class="st0" d="M257.6,83.2l-24,32l12.8,9.6L268,96h28V80h-32C261.5,80,259.1,81.2,257.6,83.2z"/>
<path class="st0" d="M208,312v16h40c3.3,0,6.2-2,7.4-5l32-80l-14.9-5.9l-30,75H208z"/>
<path d="M112,312h16v16h-16V312z"/>
<path class="st0" d="M384,320h32v16h-32V320z"/>
<path class="st0" d="M80,392h48v16H80V392z"/>
<path class="st0" d="M112,424h32v16h-32V424z"/>
<path class="st0" d="M344,448h48v16h-48V448z"/>
<path class="st0" d="M40,256h16v16H40V256z"/>
<path class="st0" d="M456,192h16v16h-16V192z"/>
</svg>
