<?xml version="1.0" encoding="utf-8"?>
<!-- Generator: Adobe Illustrator 23.0.4, SVG Export Plug-In . SVG Version: 6.00 Build 0)  -->
<svg version="1.1" id="Capa_1" xmlns="http://www.w3.org/2000/svg" xmlns:xlink="http://www.w3.org/1999/xlink" x="0px" y="0px"
	 viewBox="0 0 511 511" style="enable-background:new 0 0 511 511;" xml:space="preserve">
<style type="text/css">
	.st0{fill:#1A1A1A;}
</style>
<path class="st0" d="M504,204.6c0.2-1,0.3-1.9,0.2-3c-1.2-9.1-3.1-18.1-5.4-27c0-0.1,0-0.2-0.1-0.3c0,0,0,0,0-0.1c0,0,0,0,0,0
	c0,0,0,0,0,0c0,0,0,0,0,0c-12.1-48.9-40.5-93.1-80.2-124.6C377.5,17.2,328.2,0,275.9,0C214.6,0,157,23.9,113.7,67.2
	C70.8,110.1,47,167,46.5,227.7L23.4,243C13.1,249.8,7,261.2,7,273.5c0,7.2,2.1,14.2,6.1,20.2c5.4,8.2,13.6,13.5,22.5,15.5
	c-2.7,5.2-4.2,11-4.2,17.1c0,7.2,2.1,14.2,6.1,20.2c5.4,8.2,13.6,13.5,22.5,15.5c-2.7,5.2-4.2,11-4.2,17.1c0,7.2,2.1,14.2,6.1,20.2
	c5.4,8.2,13.6,13.5,22.5,15.4c-2.7,5.2-4.2,11-4.2,17.1c0,7.2,2.1,14.2,6.1,20.2c5.4,8.1,13.6,13.7,23.2,15.6
	c2.4,0.5,4.9,0.7,7.4,0.7c7.1,0,14.1-2.1,20.1-6.1l39.3-26c3.9,1.9,8,3.7,12,5.4c14.1,5.9,28.9,10.3,44,13.2
	c7.3,11.9,16.1,22.8,26.1,32.5l15.1,14.6c6.2,6,14.3,9.3,23,9.3c6.5,0,12.8-1.9,18.2-5.5c9.2-6.1,14.8-16.4,14.8-27.5
	c0-6.5-1.9-12.8-5.5-18.2c-1.2-1.8-2.3-3.6-3.3-5.4c71.1-14,131.4-60.7,162.8-126.8c1.9-3.9,0.2-8.6-3.7-10.5
	c-3.9-1.9-8.6-0.2-10.5,3.7c-29.8,62.7-87.6,106.7-155.4,118.8c-6.4-17.6-7.7-37-3.5-55.3l19.2-83.1c3,3.2,6.9,5.5,11.4,6.4
	c1.4,0.3,2.9,0.4,4.3,0.4c4.2,0,8.3-1.2,11.8-3.6l132.3-87.6c0.2,4.1,0.4,8.3,0.4,12.5c0,19.7-2.7,39.2-8,58
	c-1.2,4.2,1.3,8.5,5.5,9.7c0.7,0.2,1.4,0.3,2.1,0.3c3.4,0,6.6-2.3,7.6-5.7c5.7-20.2,8.6-41.1,8.6-62.3
	C505.3,221.1,504.8,212.8,504,204.6z M409.1,251L295.5,81.7l66.9-44.3c59.3,25.9,104.3,78.3,120.9,140.7c0,0,0,0,0,0.1
	c0,0.1,0,0.1,0,0.1c1.7,6.9,3,13.8,4,20.9L409.1,251z M191.7,425.8l21-13.9l4.7,12.8c1.5,3.9,3.1,7.8,4.8,11.6
	c-9.6-2.5-19-5.6-28.1-9.4C193.4,426.5,192.5,426.1,191.7,425.8z M294.7,380.9c-5.5,23.5-3.1,48.7,6.6,70.8c0,0,0,0,0,0
	c0,0,0,0.1,0.1,0.1c2.6,5.8,5.6,11.4,9.1,16.7c1.9,2.8,2.9,6.1,2.9,9.5c0,5.8-2.9,11.1-7.7,14.3c-2.8,1.9-6.1,2.9-9.5,2.9
	c-4.5,0-8.7-1.7-12-4.9l-15.1-14.6c-9.9-9.6-18.4-20.4-25.4-32.3c-0.1-0.1-0.1-0.2-0.2-0.3c-4.5-7.6-8.3-15.8-11.4-24.1L224,397
	c-1.5-4.1-6.1-6.2-10.1-4.7c-0.1,0-0.2,0.1-0.2,0.1c-0.3,0.1-0.6,0.3-1.1,0.6c-0.1,0-0.1,0.1-0.2,0.1c0,0-0.1,0-0.1,0.1l-84.1,55.7
	c-4.6,3.1-10.2,4.1-15.6,3s-10.1-4.3-13.2-8.9c-2.3-3.4-3.5-7.4-3.5-11.5c0-7,3.5-13.5,9.3-17.4l7.2-4.7c0,0,0,0,0,0
	c0,0,0.1-0.1,0.1-0.1l16.3-10.8c3.6-2.4,4.6-7.3,2.2-10.9s-7.3-4.6-10.9-2.2l-16.4,10.9c-9.6,6.2-22.4,3.6-28.7-5.9
	c-2.3-3.4-3.5-7.4-3.5-11.5c0-7,3.5-13.5,9.3-17.4l23.6-15.6c3.6-2.4,4.6-7.3,2.2-10.9c-2.4-3.6-7.3-4.6-10.9-2.2l-16.4,10.9
	c-9.6,6.2-22.4,3.6-28.7-5.9c-2.3-3.4-3.5-7.4-3.5-11.5c0-7,3.5-13.5,9.3-17.4L80,293.2c3.6-2.4,4.6-7.3,2.2-10.9
	c-2.4-3.6-7.3-4.6-10.9-2.2L55,290.8c-9.6,6.3-22.5,3.7-28.8-5.9c-2.3-3.4-3.5-7.4-3.5-11.5c0-7,3.5-13.5,9.3-17.4l57.3-37.9
	c3.6-2.4,4.6-7.3,2.2-10.9c-2.4-3.6-7.3-4.6-10.9-2.2l-18,11.9c6.5-112,99.6-201.2,213.2-201.2c25,0,49.2,4.2,71.9,12.3l-121,80.1
	c-9.9,6.6-12.6,19.9-6,29.8l0.7,1.1l-10.3,6.9c-5.8,3.8-12.5,5.9-19.5,5.9c-1.9,0-3.7-0.2-5.6-0.4c-12.7-2-25.5,0.7-36.2,7.8
	l-41.1,27.2c-3.6,2.4-4.6,7.3-2.2,10.9c1.5,2.3,4,3.5,6.6,3.5c1.5,0,3-0.4,4.3-1.3l41.1-27.2c7.4-4.9,16.3-6.8,25-5.4
	c2.7,0.4,5.4,0.6,8.1,0.6c10,0,19.8-2.9,28.2-8.5l10.4-6.9l87,131.4L294.7,380.9z M348.1,291.4c-1.3,0.8-2.8,1.1-4.3,0.8
	c-1.5-0.3-2.8-1.2-3.6-2.5L239,137c0,0,0,0,0,0c0,0,0,0,0,0l-5-7.6c-1.7-2.6-1-6.2,1.6-8l46.8-31l113.6,169.4L348.1,291.4z"/>
</svg>
