<?xml version="1.0" encoding="utf-8"?>
<!-- Generator: Adobe Illustrator 23.0.4, SVG Export Plug-In . SVG Version: 6.00 Build 0)  -->
<svg version="1.1" id="Capa_1" xmlns="http://www.w3.org/2000/svg" xmlns:xlink="http://www.w3.org/1999/xlink" x="0px" y="0px"
	 viewBox="0 0 512 512" style="enable-background:new 0 0 512 512;" xml:space="preserve">
<style type="text/css">
	.st0{fill:#CCCCC2;}
	.st1{fill:#1A1A1A;}
</style>
<polyline class="st0" points="462.9,243.1 461.4,191.4 429.5,174.1 425.4,158.4 436.2,146.7 436.6,131.7 440,124.2 432.1,104.7 
	412.2,101.4 395.7,102.9 386.4,120.5 388.6,132.5 390.5,147.1 399.5,161.4 394.2,176 395.4,244.6 461.7,245 "/>
<g>
	<g>
		<path class="st1" d="M308.1,320.4l-36.2-16.1c-2.6-1.1-4.2-3.7-4.2-6.5v-9.9c12.2-9.7,20-24.6,20-41.4v-14c4-2.2,6.7-6.5,6.7-11.3
			v-1.4c0-29.2-23.7-52.9-52.9-52.9h-13.3c-29.2,0-52.9,23.7-52.9,52.9v12.3c0,4.2,1.8,8,5,10.5c0.5,0.4,1.1,0.8,1.7,1.1v2.8
			c0,16.7,7.8,31.7,20,41.4v9.9c0,2.8-1.7,5.3-4.2,6.5l-36.2,16.1c-11.9,5.3-19.5,17.1-19.5,30.1v82.6c0,3.4,2.8,6.2,6.2,6.2
			s6.2-2.8,6.2-6.2v-82.6c0-0.7,0.1-1.4,0.1-2.1l16.7,16.7c2.6,2.6,4,6.1,4,9.7v58.4c0,3.4,2.8,6.2,6.2,6.2s6.2-2.8,6.2-6.2v-58.4
			c0-7-2.7-13.6-7.7-18.5l-19.9-19.9c1.8-1.9,3.9-3.4,6.4-4.5l35.6-15.8l26.4,26.4v90.7c0,3.4,2.8,6.2,6.2,6.2s6.2-2.8,6.2-6.2
			v-90.7l26.4-26.4l35.6,15.8c2.4,1.1,4.6,2.6,6.4,4.5l-19.9,19.9c-5,5-7.7,11.5-7.7,18.5v58.4c0,3.4,2.8,6.2,6.2,6.2
			c3.4,0,6.2-2.8,6.2-6.2v-58.4c0-3.7,1.4-7.1,4-9.7l16.7-16.7c0.1,0.7,0.1,1.4,0.1,2.1v82.6c0,3.4,2.8,6.2,6.2,6.2
			c3.4,0,6.2-2.8,6.2-6.2v-82.6C327.7,337.5,320,325.7,308.1,320.4z M234.8,331l-23.2-23.2c1.8-3,2.8-6.4,2.8-10v-2.5
			c6.3,2.6,13.2,4.1,20.4,4.1c7.2,0,14.1-1.5,20.4-4.1v2.5c0,3.6,1,7,2.8,10L234.8,331z M234.8,286.9c-22.3,0-40.4-18.1-40.4-40.4
			v-2.8c3.9-1.5,7.7-4,11.3-7.3c2.5-2.3,2.7-6.3,0.4-8.8c-2.3-2.5-6.3-2.7-8.8-0.4c-3.1,2.9-6.2,4.7-9.3,5.5c-0.1,0-0.1,0-0.2,0
			c0-0.1-0.1-0.3-0.1-0.6v-12.3c0-22.3,18.1-40.4,40.4-40.4h13.3c22.3,0,40.4,18.1,40.4,40.4v1.4c0,0.2-0.1,0.4-0.3,0.4
			c-37.3,7.4-56.1-6.5-62.4-12.8c-2.4-2.4-6.4-2.4-8.8,0c-2.4,2.4-2.4,6.4,0,8.8c19.4,19.4,47.6,19.7,64.8,17.6v11.3
			C275.2,268.8,257.1,286.9,234.8,286.9z"/>
	</g>
</g>
<g>
	<g>
		<path class="st1" d="M178.9,189.4v-13.3c0-16.2-8.4-30.5-21.1-38.7c0.8-2.5,1.2-5.1,1.2-7.8c0-14.4-11.7-26.1-26.1-26.1
			s-26.1,11.7-26.1,26.1c0,2.7,0.4,5.3,1.2,7.8c-12.7,8.2-21.1,22.5-21.1,38.7v13.3c0,15.7,7.9,29.6,19.9,37.9v13.7
			c0,2.7-1.5,5.1-3.9,6.3L81.4,258c-8.9,4.5-14.4,13.4-14.4,23.4v54.1c0,3.4,2.8,6.2,6.2,6.2s6.2-2.8,6.2-6.2V284l10.1,10.1
			c2.6,2.6,4,6,4,9.7v31.6c0,3.4,2.8,6.2,6.2,6.2s6.2-2.8,6.2-6.2v-31.6c0-7-2.7-13.5-7.7-18.5l-14.1-14.1c-0.1-0.1-0.1-0.1-0.2-0.2
			c0.9-0.8,1.9-1.5,3-2l21.5-10.7c1.1-0.6,2.1-1.2,3.1-1.9l15.2,15.2v63.8c0,3.4,2.8,6.2,6.2,6.2s6.2-2.8,6.2-6.2v-63.8l15.2-15.2
			c1,0.7,2,1.4,3.1,1.9l5.9,3c0.9,0.4,1.8,0.7,2.8,0.7c2.3,0,4.5-1.3,5.6-3.4c1.5-3.1,0.3-6.8-2.8-8.3l-5.9-3
			c-2.4-1.2-3.9-3.6-3.9-6.3v-13.7C171,218.9,178.9,205,178.9,189.4z M132.9,115.9c7.6,0,13.7,6.1,13.7,13.7c0,0.8-0.1,1.6-0.2,2.4
			c-4.3-1.3-8.8-2-13.5-2c-4.7,0-9.2,0.7-13.5,2c-0.1-0.8-0.2-1.6-0.2-2.4C119.2,122.1,125.3,115.9,132.9,115.9z M132.9,142.5
			c18.5,0,33.6,15.1,33.6,33.6v2.3c-25.9,7.9-41.3-11.8-41.9-12.6c-1.1-1.4-2.7-2.3-4.5-2.5c-1.8-0.1-3.6,0.5-4.8,1.8
			c-5.9,5.9-11.7,8.8-15.9,10.2C99.8,157.1,114.6,142.5,132.9,142.5z M132.9,260.2l-14.4-14.4c0.4-1.6,0.6-3.3,0.6-5v-7.6
			c4.3,1.4,8.9,2.1,13.7,2.1c4.8,0,9.4-0.7,13.7-2.1v7.6c0,1.7,0.2,3.4,0.6,5L132.9,260.2z M132.9,223c-18.5,0-33.6-15.1-33.6-33.6
			v-1.3c5-1.1,12.3-3.8,20-9.9c2.7,2.6,6.6,5.7,11.5,8.4c5.8,3.2,13.9,6.1,23.7,6.1c3.7,0,7.7-0.4,12-1.4
			C165.5,208.9,150.8,223,132.9,223z"/>
	</g>
</g>
<g>
	<g>
		<path class="st1" d="M322.7,277.5v14.1c0,2.8-1.5,5.3-4,6.5l-6.1,3.1c-3.2,1.6-4.5,5.4-2.9,8.6c1.1,2.3,3.4,3.6,5.8,3.6
			c1,0,1.9-0.2,2.9-0.7l6.1-3.1c1.1-0.6,2.2-1.2,3.2-2l15.7,15.7v66c0,3.5,2.9,6.4,6.4,6.4s6.4-2.9,6.4-6.4v-66l15.7-15.7
			c1,0.7,2,1.4,3.2,2l22.2,11.1c1.1,0.6,2.2,1.3,3.1,2.1c-0.1,0.1-0.1,0.1-0.2,0.2l-14.6,14.6c-5.1,5.1-7.9,11.9-7.9,19.1v32.7
			c0,3.5,2.9,6.4,6.4,6.4s6.4-2.9,6.4-6.4v-32.7c0-3.8,1.5-7.3,4.2-10l10.5-10.5v53.2c0,3.5,2.9,6.4,6.4,6.4s6.4-2.9,6.4-6.4v-55.9
			c0-10.3-5.7-19.6-14.9-24.2l-22.2-11.1c-2.5-1.2-4-3.8-4-6.5v-14.1c12.4-8.6,20.6-23,20.6-39.2v-13.7c0-16.8-8.7-31.5-21.8-40
			c0.8-2.6,1.2-5.3,1.2-8.1c0-14.9-12.1-27-27-27s-27,12.1-27,27c0,2.7,0.4,5.5,1.2,8.1c-13.1,8.5-21.8,23.2-21.8,40v13.7
			C302.1,254.5,310.3,268.9,322.7,277.5z M363.9,176.5c0,0.9-0.1,1.7-0.2,2.5c-4.4-1.4-9.1-2.1-13.9-2.1c-4.9,0-9.5,0.7-14,2.1
			c-0.1-0.8-0.2-1.7-0.2-2.5c0-7.8,6.4-14.2,14.2-14.2S363.9,168.7,363.9,176.5z M384.5,223.7c-4.3-1.4-10.3-4.4-16.5-10.5
			c-1.3-1.3-3.1-2-5-1.9c-1.9,0.1-3.6,1.1-4.7,2.6c-0.7,0.9-16.6,21.2-43.4,13.1v-2.3c0-19.2,15.6-34.8,34.8-34.8
			C368.6,189.8,384,204.9,384.5,223.7z M334.9,296.8c0.4-1.7,0.7-3.4,0.7-5.2v-7.8c4.5,1.4,9.2,2.2,14.2,2.2c4.9,0,9.7-0.8,14.2-2.2
			v7.8c0,1.8,0.2,3.5,0.7,5.2l-14.8,14.8L334.9,296.8z M315,240.2c4.4,1,8.5,1.5,12.4,1.5c10.2,0,18.5-3,24.6-6.3
			c5.1-2.8,9.1-6,11.9-8.7c7.9,6.4,15.5,9.1,20.6,10.3v1.3c0,19.2-15.6,34.8-34.8,34.8C331.2,273.1,316,258.5,315,240.2z"/>
	</g>
</g>
<g>
	<g>
		<path class="st1" d="M456.3,182.6l-23.4-11.7c-1.6-0.8-2.6-2.4-2.6-4.3v-5.9c5.5-4.9,8.9-12,8.9-19.9v-4.8c0.1,0,0.2,0,0.3,0
			c2.3,0,4.2-1.9,4.2-4.2v-8.9c0-14.6-11.9-26.6-26.6-26.6h-8.9c-14.6,0-26.6,11.9-26.6,26.6v8.9c0,2.3,1.9,4.2,4.2,4.2
			c0,0,0.1,0,0.3,0v4.8c0,7.9,3.5,15,8.9,19.9v5.9c0,1.8-1,3.4-2.6,4.3c-2.1,1-2.9,3.5-1.9,5.6c0.7,1.5,2.2,2.3,3.7,2.3
			c0.6,0,1.3-0.1,1.9-0.4c0.7-0.4,1.4-0.8,2.1-1.3l10.2,10.2v56.4c0,2.3,1.9,4.2,4.2,4.2s4.2-1.9,4.2-4.2v-56.4l10.2-10.2
			c0.6,0.5,1.3,0.9,2.1,1.3l22.7,11.3l-6.9,6.9c-3.3,3.3-5.2,7.7-5.2,12.4v34.7c0,2.3,1.9,4.2,4.2,4.2c2.3,0,4.2-1.9,4.2-4.2V209
			c0-2.5,1-4.8,2.7-6.5l6.5-6.5c0.2,0.8,0.3,1.5,0.3,2.4v45.4c0,2.3,1.9,4.2,4.2,4.2c2.3,0,4.2-1.9,4.2-4.2v-45.4
			C466,191.6,462.3,185.6,456.3,182.6z M390,126.8v-3.9h0c0-10,8.2-18.2,18.2-18.2h8.9c10,0,18.2,8.2,18.2,18.2v4.6
			c-18.2-1-29.2-8.1-29.3-8.1c-0.7-0.5-1.5-0.7-2.3-0.7c-1.1,0-2.2,0.4-3,1.2C396.7,124,392.8,125.9,390,126.8z M412.7,179.6
			L403,170c0.3-1.1,0.4-2.2,0.4-3.4v-0.9c2.9,1.1,6,1.7,9.2,1.7c3.2,0,6.4-0.6,9.2-1.7v0.9c0,1.2,0.2,2.3,0.4,3.4L412.7,179.6z
			 M412.7,159c-10,0-18.2-8.2-18.2-18.2v-6.7l0,0c2.9-1.2,6.3-3,9.8-6c4.4,2.3,13.6,6.2,26.5,7.5v5.2
			C430.8,150.9,422.7,159,412.7,159z"/>
	</g>
</g>
</svg>
